<svg width="88" height="12" viewBox="0 0 88 12" fill="none" xmlns="http://www.w3.org/2000/svg">
<path d="M0.852783 11.6479V1.07929H5.18121C5.8245 1.07929 6.38049 1.19751 6.84917 1.43394C7.31786 1.66092 7.67626 1.99193 7.92439 2.42697C8.17251 2.85255 8.29658 3.35852 8.29658 3.94488C8.29658 4.45558 8.16792 4.92372 7.9106 5.3493C7.66248 5.76542 7.27191 6.09643 6.73889 6.34232V5.63302C7.20758 5.82217 7.58896 6.06333 7.88303 6.35651C8.17711 6.64023 8.38847 6.96178 8.51713 7.32116C8.65498 7.68054 8.7239 8.05884 8.7239 8.45605C8.7239 9.44907 8.40685 10.2293 7.77275 10.7968C7.14784 11.3642 6.28859 11.6479 5.195 11.6479H0.852783ZM2.47939 10.1584H5.31906C5.86126 10.1584 6.29318 10.0071 6.61483 9.70442C6.93648 9.39233 7.0973 8.98093 7.0973 8.47023C7.0973 7.95008 6.93648 7.53868 6.61483 7.23605C6.29318 6.92395 5.86126 6.76791 5.31906 6.76791H2.47939V10.1584ZM2.47939 5.29255H5.22257C5.66368 5.29255 6.01749 5.16488 6.284 4.90953C6.5505 4.64472 6.68375 4.29953 6.68375 3.87395C6.68375 3.44836 6.5505 3.11736 6.284 2.88092C6.01749 2.64449 5.66368 2.52627 5.22257 2.52627H2.47939V5.29255Z" fill="white"/>
<path d="M9.48735 11.6479L13.099 1.07929H15.1115L18.7232 11.6479H16.9863L16.2005 9.27884H12.0237L11.2242 11.6479H9.48735ZM12.4924 7.7893H15.7043L13.8847 2.25673H14.3396L12.4924 7.7893Z" fill="white"/>
<path d="M19.9415 11.6479V1.07929H21.5681V10.1584H26.0068V11.6479H19.9415Z" fill="white"/>
<path d="M27.3724 11.6479V1.07929H28.999V10.1584H33.4377V11.6479H27.3724Z" fill="white"/>
<path d="M39.5241 11.8181C38.7797 11.8181 38.0859 11.681 37.4426 11.4068C36.8085 11.1325 36.2479 10.7495 35.7609 10.2577C35.283 9.7659 34.9062 9.189 34.6305 8.52698C34.364 7.86496 34.2307 7.14147 34.2307 6.35651C34.2307 5.57155 34.364 4.84806 34.6305 4.18604C34.9062 3.51457 35.283 2.93767 35.7609 2.45534C36.2387 1.96356 36.7993 1.58526 37.4426 1.32045C38.0859 1.04619 38.7797 0.909058 39.5241 0.909058C40.2777 0.909058 40.9715 1.04619 41.6056 1.32045C42.2489 1.58526 42.8095 1.96356 43.2874 2.45534C43.7744 2.94712 44.1512 3.52402 44.4177 4.18604C44.6842 4.84806 44.8175 5.57155 44.8175 6.35651C44.8175 7.14147 44.6796 7.86496 44.4039 8.52698C44.1374 9.189 43.7652 9.7659 43.2874 10.2577C42.8095 10.7495 42.2489 11.1325 41.6056 11.4068C40.9623 11.681 40.2685 11.8181 39.5241 11.8181ZM39.5241 10.2861C40.0571 10.2861 40.5442 10.1867 40.9853 9.98814C41.4356 9.78954 41.8262 9.51528 42.157 9.16535C42.4878 8.80597 42.7451 8.38985 42.9289 7.91698C43.1127 7.43465 43.2046 6.9145 43.2046 6.35651C43.2046 5.79852 43.1127 5.2831 42.9289 4.81023C42.7451 4.33736 42.4878 3.92123 42.157 3.56185C41.8262 3.20247 41.4356 2.92348 40.9853 2.72488C40.5442 2.52627 40.0571 2.42697 39.5241 2.42697C38.9911 2.42697 38.4994 2.52627 38.0491 2.72488C37.608 2.92348 37.222 3.20247 36.8912 3.56185C36.5604 3.92123 36.3031 4.33736 36.1193 4.81023C35.9447 5.2831 35.8573 5.79852 35.8573 6.35651C35.8573 6.9145 35.9447 7.43465 36.1193 7.91698C36.3031 8.38985 36.5604 8.80597 36.8912 9.16535C37.222 9.51528 37.6126 9.78954 38.0629 9.98814C38.5132 10.1867 39.0003 10.2861 39.5241 10.2861Z" fill="white"/>
<path d="M51.6262 11.8181C50.8818 11.8181 50.188 11.681 49.5447 11.4068C48.9106 11.1325 48.35 10.7495 47.8629 10.2577C47.3851 9.7659 47.0083 9.189 46.7326 8.52698C46.4661 7.86496 46.3328 7.14147 46.3328 6.35651C46.3328 5.57155 46.4661 4.84806 46.7326 4.18604C47.0083 3.51457 47.3851 2.93767 47.8629 2.45534C48.3408 1.96356 48.9014 1.58526 49.5447 1.32045C50.188 1.04619 50.8818 0.909058 51.6262 0.909058C52.3798 0.909058 53.0736 1.04619 53.7077 1.32045C54.351 1.58526 54.9116 1.96356 55.3894 2.45534C55.8765 2.94712 56.2533 3.52402 56.5198 4.18604C56.7863 4.84806 56.9196 5.57155 56.9196 6.35651C56.9196 7.14147 56.7817 7.86496 56.506 8.52698C56.2395 9.189 55.8673 9.7659 55.3894 10.2577C54.9116 10.7495 54.351 11.1325 53.7077 11.4068C53.0644 11.681 52.3706 11.8181 51.6262 11.8181ZM51.6262 10.2861C52.1592 10.2861 52.6463 10.1867 53.0874 9.98814C53.5377 9.78954 53.9283 9.51528 54.2591 9.16535C54.5899 8.80597 54.8472 8.38985 55.031 7.91698C55.2148 7.43465 55.3067 6.9145 55.3067 6.35651C55.3067 5.79852 55.2148 5.2831 55.031 4.81023C54.8472 4.33736 54.5899 3.92123 54.2591 3.56185C53.9283 3.20247 53.5377 2.92348 53.0874 2.72488C52.6463 2.52627 52.1592 2.42697 51.6262 2.42697C51.0932 2.42697 50.6015 2.52627 50.1512 2.72488C49.7101 2.92348 49.3241 3.20247 48.9933 3.56185C48.6625 3.92123 48.4051 4.33736 48.2213 4.81023C48.0467 5.2831 47.9594 5.79852 47.9594 6.35651C47.9594 6.9145 48.0467 7.43465 48.2213 7.91698C48.4051 8.38985 48.6625 8.80597 48.9933 9.16535C49.3241 9.51528 49.7147 9.78954 50.165 9.98814C50.6153 10.1867 51.1024 10.2861 51.6262 10.2861Z" fill="white"/>
<path d="M58.7382 11.6479V1.07929H60.0477L65.8098 9.26466L65.1895 9.36396V1.07929H66.8023V11.6479H65.4927L59.772 3.40581L60.3648 3.29232V11.6479H58.7382Z" fill="white"/>
<path d="M68.9287 11.6479V1.07929H70.5553V11.6479H68.9287Z" fill="white"/>
<path d="M76.2823 11.8181C75.6391 11.8181 75.0417 11.6952 74.4903 11.4493C73.9389 11.194 73.4703 10.8488 73.0843 10.4137C72.6983 9.97869 72.4134 9.47745 72.2296 8.91L73.6081 8.31419C73.8562 8.96675 74.2192 9.46799 74.6971 9.81791C75.175 10.1678 75.7264 10.3428 76.3513 10.3428C76.7189 10.3428 77.0405 10.2861 77.3162 10.1726C77.5919 10.0496 77.8033 9.87938 77.9503 9.66186C78.1065 9.44434 78.1847 9.19372 78.1847 8.91C78.1847 8.52225 78.079 8.21489 77.8676 7.98791C77.6562 7.76093 77.3438 7.58124 76.9302 7.44884L75.0004 6.82465C74.2284 6.57876 73.6403 6.20519 73.2359 5.70395C72.8316 5.19325 72.6294 4.59744 72.6294 3.91651C72.6294 3.32069 72.7718 2.80053 73.0567 2.35604C73.3416 1.90208 73.7322 1.54743 74.2284 1.29208C74.7339 1.03673 75.3082 0.909058 75.9515 0.909058C76.5672 0.909058 77.1278 1.02255 77.6333 1.24952C78.1387 1.46704 78.5706 1.76968 78.929 2.15743C79.2966 2.54518 79.5631 2.99441 79.7286 3.50511L78.3776 4.11511C78.1755 3.55712 77.8584 3.12681 77.4265 2.82418C77.0038 2.52154 76.5121 2.37022 75.9515 2.37022C75.6115 2.37022 75.3128 2.4317 75.0555 2.55464C74.7982 2.66813 74.596 2.83836 74.449 3.06534C74.3111 3.28286 74.2422 3.53821 74.2422 3.83139C74.2422 4.17185 74.3479 4.47449 74.5593 4.7393C74.7706 5.0041 75.0923 5.20271 75.5242 5.33511L77.3162 5.91674C78.1341 6.17209 78.7498 6.54093 79.1634 7.02326C79.5769 7.49612 79.7837 8.08721 79.7837 8.79652C79.7837 9.38287 79.6321 9.90303 79.3288 10.357C79.0347 10.8109 78.6258 11.1703 78.1019 11.4351C77.5781 11.6905 76.9716 11.8181 76.2823 11.8181Z" fill="white"/>
<path d="M83.4292 11.6479V2.56883H80.6998V1.07929H87.7301V2.56883H85.0421V11.6479H83.4292Z" fill="white"/>
</svg>
