<svg width="16" height="14" viewBox="0 0 16 14" xmlns="http://www.w3.org/2000/svg">
<path fill-rule="evenodd" clip-rule="evenodd" d="M9.68539 0.329407C11.1735 -0.0539722 12.9695 0.474436 14.0625 1.63848H15.2894C15.4861 1.63848 15.6688 1.73958 15.7734 1.90613C15.8779 2.07268 15.8895 2.28126 15.804 2.45834L14.5976 4.95719C14.9399 7.86887 13.8009 10.6527 11.5098 12.2983C9.16614 13.9818 5.71831 14.406 1.63011 12.7309C1.41495 12.6499 1.22911 12.5058 1.09703 12.3173C0.962317 12.1251 0.89005 11.896 0.89005 11.6613C0.89005 11.4267 0.962317 11.1976 1.09703 11.0054C1.23174 10.8132 1.42237 10.6671 1.64299 10.587C1.65792 10.5816 1.67307 10.5768 1.6884 10.5727C2.31714 10.4022 2.91827 10.1471 3.47574 9.81563C2.3712 9.15197 1.46902 8.18741 0.880933 7.02576C0.146697 5.57542 -0.0500764 3.91236 0.324669 2.33144C0.348497 2.13341 0.423795 1.94471 0.543485 1.78437C0.674147 1.6093 0.852243 1.47537 1.05668 1.3984C1.26111 1.32144 1.48333 1.30468 1.69698 1.3501C1.91045 1.39549 2.10646 1.50103 2.26183 1.65426C3.87607 3.24092 5.28847 3.89754 6.26638 4.16601C6.6455 4.2701 6.96291 4.31684 7.20573 4.33575C7.1305 3.32962 7.30181 2.49122 7.68103 1.82818C8.14315 1.02016 8.87742 0.537567 9.68539 0.329407Z"/>
</svg>
