<svg width="16" height="20" viewBox="0 0 16 20" xmlns="http://www.w3.org/2000/svg">
<path fill-rule="evenodd" clip-rule="evenodd" d="M2.07658 4.53471C1.59101 5.44921 1.08437 6.97591 0.690371 8.74178C0.289933 10.5365 0.0210366 12.5097 0 14.2197C0.386539 14.7667 1.43878 15.8195 3.17749 16.3132L4.42078 14.5273C3.81997 14.2785 3.31438 13.9581 2.99695 13.5934C2.7738 13.3369 2.7738 12.9211 2.99695 12.6647C3.22011 12.4082 3.58191 12.4082 3.80507 12.6647C4.03908 12.9336 4.64062 13.2951 5.52897 13.535C6.08025 13.6839 6.71102 13.7771 7.37482 13.7771C8.03861 13.7771 8.66939 13.6839 9.22067 13.535C10.109 13.2951 10.7106 12.9336 10.9446 12.6647C11.1677 12.4082 11.5295 12.4082 11.7527 12.6647C11.9758 12.9211 11.9758 13.3369 11.7527 13.5934C11.4352 13.9581 10.9297 14.2784 10.3289 14.5273L11.5723 16.3132C13.3109 15.8195 14.3631 14.7667 14.7497 14.2197C14.7287 12.5097 14.4598 10.5365 14.0593 8.74178C13.6653 6.97591 13.1587 5.44921 12.6732 4.53471L12.6391 4.52274C12.4881 4.47071 12.2281 4.39498 11.8224 4.31726C11.0099 4.16162 9.62332 4 7.37485 4C5.12638 4 3.73987 4.16162 2.9273 4.31726C2.5215 4.39498 2.2615 4.47071 2.11054 4.52274L2.07658 4.53471ZM5.73655 9.21631C5.73655 9.97772 5.19943 10.595 4.53686 10.595C3.8743 10.595 3.33718 9.97772 3.33718 9.21631C3.33718 8.45489 3.8743 7.83765 4.53686 7.83765C5.19943 7.83765 5.73655 8.45489 5.73655 9.21631ZM10.1489 10.595C10.8115 10.595 11.3486 9.97772 11.3486 9.21631C11.3486 8.45489 10.8115 7.83765 10.1489 7.83765C9.48633 7.83765 8.94922 8.45489 8.94922 9.21631C8.94922 9.97772 9.48633 10.595 10.1489 10.595Z"/>
</svg>
