<svg width="14" height="14" viewBox="0 0 14 14" xmlns="http://www.w3.org/2000/svg">
<path d="M3.33325 4.66663H0.666585C0.48249 4.66663 0.333252 4.81586 0.333252 4.99996V13.6666C0.333252 13.8507 0.48249 14 0.666585 14H3.33325C3.51735 14 3.66658 13.8507 3.66658 13.6666V4.99996C3.66658 4.81586 3.51735 4.66663 3.33325 4.66663Z"/>
<path d="M1.9866 3.33328C2.31679 3.33592 2.64032 3.24042 2.91615 3.0589C3.19198 2.87738 3.40768 2.61801 3.53587 2.31371C3.66406 2.00941 3.69898 1.67389 3.63618 1.34971C3.57339 1.02554 3.41571 0.727322 3.18317 0.492898C2.95062 0.258475 2.65368 0.0984115 2.33002 0.0330147C2.00636 -0.0323821 1.67057 -0.00016438 1.36524 0.12558C1.05992 0.251325 0.798834 0.46493 0.615102 0.739293C0.43137 1.01366 0.333276 1.33641 0.333265 1.66661C0.332388 1.88461 0.374457 2.10064 0.457071 2.30238C0.539684 2.50411 0.661224 2.6876 0.81475 2.84237C0.968277 2.99713 1.15078 3.12014 1.35185 3.20437C1.55292 3.2886 1.7686 3.33241 1.9866 3.33328Z"/>
<path d="M11.3333 14H13.3333C13.4217 14 13.5065 13.9649 13.569 13.9024C13.6315 13.8398 13.6667 13.7551 13.6667 13.6667V8.06666C13.6667 5.55332 12.2467 4.33332 10.26 4.33332C9.8666 4.31932 9.47463 4.38804 9.10945 4.53503C8.74427 4.68202 8.414 4.90402 8.14 5.18666C8.10276 5.22709 8.05366 5.25467 7.99976 5.26545C7.94586 5.27623 7.88993 5.26965 7.84 5.24666C7.7896 5.22783 7.74607 5.19419 7.71513 5.15017C7.6842 5.10614 7.6673 5.05379 7.66667 4.99999C7.66667 4.91158 7.63155 4.8268 7.56904 4.76429C7.50652 4.70177 7.42174 4.66666 7.33333 4.66666H5.33333C5.24493 4.66666 5.16014 4.70177 5.09763 4.76429C5.03512 4.8268 5 4.91158 5 4.99999V13.6667C5 13.7551 5.03512 13.8398 5.09763 13.9024C5.16014 13.9649 5.24493 14 5.33333 14H7.33333C7.42174 14 7.50652 13.9649 7.56904 13.9024C7.63155 13.8398 7.66667 13.7551 7.66667 13.6667V8.66666C7.66667 8.22463 7.84226 7.80071 8.15482 7.48814C8.46738 7.17558 8.89131 6.99999 9.33333 6.99999C9.77536 6.99999 10.1993 7.17558 10.5118 7.48814C10.8244 7.80071 11 8.22463 11 8.66666V13.6667C11 13.7551 11.0351 13.8398 11.0976 13.9024C11.1601 13.9649 11.2449 14 11.3333 14Z"/>
</svg>
