<svg width="26" height="16" viewBox="0 0 26 16" fill="none" xmlns="http://www.w3.org/2000/svg">
<path fill-rule="evenodd" clip-rule="evenodd" d="M17.6331 1.28H7.91905C4.24525 1.28 1.26705 4.28865 1.26705 8C1.26705 11.7114 4.24525 14.72 7.91905 14.72H17.6331C21.3069 14.72 24.2851 11.7114 24.2851 8C24.2851 4.28865 21.3069 1.28 17.6331 1.28ZM7.91905 0C3.54548 0 0 3.58172 0 8C0 12.4183 3.54548 16 7.91905 16H17.6331C22.0067 16 25.5521 12.4183 25.5521 8C25.5521 3.58172 22.0067 0 17.6331 0H7.91905Z" fill="white"/>
<path fill-rule="evenodd" clip-rule="evenodd" d="M6.12407 8C6.12407 11.7114 9.10227 14.72 12.7761 14.72C16.4499 14.72 19.4281 11.7114 19.4281 8C19.4281 4.28865 16.4499 1.28 12.7761 1.28C9.10227 1.28 6.12407 4.28865 6.12407 8ZM12.7761 0C8.4025 0 4.85702 3.58172 4.85702 8C4.85702 12.4183 8.4025 16 12.7761 16C17.1496 16 20.6951 12.4183 20.6951 8C20.6951 3.58172 17.1496 0 12.7761 0Z" fill="white"/>
<path fill-rule="evenodd" clip-rule="evenodd" d="M10.9811 3.09333V12.9067C10.9811 13.9081 11.7847 14.72 12.7761 14.72C13.7674 14.72 14.5711 13.9081 14.5711 12.9067V3.09333C14.5711 2.09186 13.7674 1.28 12.7761 1.28C11.7847 1.28 10.9811 2.09186 10.9811 3.09333ZM12.7761 0C11.085 0 9.71404 1.38493 9.71404 3.09333V12.9067C9.71404 14.6151 11.085 16 12.7761 16C14.4672 16 15.8381 14.6151 15.8381 12.9067V3.09333C15.8381 1.38493 14.4672 0 12.7761 0Z" fill="white"/>
<path fill-rule="evenodd" clip-rule="evenodd" d="M24.4963 8.74667L0.844699 8.74667L0.844699 7.25333L24.4963 7.25334V8.74667Z" fill="white"/>
</svg>
