<svg width="16" height="16" viewBox="0 0 16 16" xmlns="http://www.w3.org/2000/svg">
<g clip-path="url(#clip0_180_983)">
<path fill-rule="evenodd" clip-rule="evenodd" d="M13.5108 0.111765C13.8402 -0.00852201 14.197 -0.0327456 14.5399 0.0420324C14.8861 0.117559 15.2033 0.290905 15.4538 0.541463C15.7044 0.79202 15.8777 1.10925 15.9533 1.45545C16.028 1.79822 16.0038 2.15511 15.8836 2.48451L11.799 14.7267L11.7988 14.7275C11.6992 15.0287 11.524 15.2992 11.2899 15.5131C11.0564 15.7264 10.7721 15.8763 10.4643 15.9485C10.1564 16.0235 9.8342 16.0173 9.52944 15.9302C9.22495 15.8432 8.94832 15.6785 8.72664 15.4525L6.53539 13.2713L4.23361 14.4615C4.05412 14.5544 3.83896 14.5455 3.66772 14.4382C3.4965 14.3309 3.39466 14.1411 3.39991 13.9391L3.49427 10.3006L11.5456 4.45211C11.8648 4.22026 11.9357 3.77358 11.7038 3.45441C11.4719 3.13523 11.0253 3.06445 10.7061 3.29629L2.51811 9.24395L0.541307 7.26714L0.541241 7.26709L0.541097 7.26694C0.327013 7.05301 0.169411 6.78926 0.0824435 6.49936C-0.00390557 6.21153 -0.0179345 5.90689 0.0415505 5.6124C0.101112 5.29067 0.244931 4.99045 0.458395 4.74237C0.673321 4.49258 0.95105 4.30473 1.26288 4.19823L1.26673 4.19691V4.19693L13.5108 0.111765Z"/>
</g>
<defs>
<clipPath id="clip0_180_983">
<rect width="16" height="16"/>
</clipPath>
</defs>
</svg>
